<?xml version="1.0" encoding="iso-8859-1"?>
<!-- Generator: Adobe Illustrator 19.0.0, SVG Export Plug-In . SVG Version: 6.00 Build 0)  -->
<svg version="1.1" id="Layer_1" xmlns="http://www.w3.org/2000/svg" xmlns:xlink="http://www.w3.org/1999/xlink" x="0px" y="0px"
	 viewBox="0 0 512 512" style="enable-background:new 0 0 512 512;" xml:space="preserve">
<g>
	<g>
		<g>
			<path d="M256,0C114.617,0,0,114.617,0,256s114.617,256,256,256s256-114.617,256-256S397.383,0,256,0z M256,494.933
				C124.043,494.933,17.067,387.957,17.067,256S124.043,17.067,256,17.067S494.933,124.043,494.933,256S387.957,494.933,256,494.933
				z"/>
			<path d="M290.133,307.2h-68.267c-4.713,0-8.533,3.82-8.533,8.533s3.82,8.533,8.533,8.533h68.267c4.713,0,8.533-3.82,8.533-8.533
				S294.846,307.2,290.133,307.2z"/>
			<circle cx="153.6" cy="170.667" r="8.533"/>
			<path d="M153.6,119.467c-28.273,0-51.2,22.927-51.2,51.2s22.927,51.2,51.2,51.2c28.273,0,51.2-22.927,51.2-51.2
				S181.873,119.467,153.6,119.467z M153.6,204.8c-18.848,0-34.133-15.286-34.133-34.133s15.286-34.133,34.133-34.133
				c18.848,0,34.133,15.286,34.133,34.133S172.448,204.8,153.6,204.8z"/>
			<circle cx="358.4" cy="170.667" r="8.533"/>
			<path d="M358.4,119.467c-28.273,0-51.2,22.927-51.2,51.2s22.927,51.2,51.2,51.2s51.2-22.927,51.2-51.2
				S386.673,119.467,358.4,119.467z M358.4,204.8c-18.848,0-34.133-15.286-34.133-34.133s15.286-34.133,34.133-34.133
				c18.848,0,34.133,15.286,34.133,34.133S377.248,204.8,358.4,204.8z"/>
		</g>
	</g>
</g>
<g>
</g>
<g>
</g>
<g>
</g>
<g>
</g>
<g>
</g>
<g>
</g>
<g>
</g>
<g>
</g>
<g>
</g>
<g>
</g>
<g>
</g>
<g>
</g>
<g>
</g>
<g>
</g>
<g>
</g>
</svg>
